<svg width="115" height="133" viewBox="0 0 115 133" fill="none" xmlns="http://www.w3.org/2000/svg">
<g clip-path="url(#clip0_9_2)">
<path d="M57.4041 130.377H57.4052C62.8159 130.377 67.2021 125.991 67.2021 120.58L67.2021 10.896C67.2021 5.48521 62.8159 1.09895 57.4052 1.09895H57.4041C51.9934 1.09895 47.6071 5.48521 47.6071 10.896L47.6071 120.58C47.6071 125.991 51.9934 130.377 57.4041 130.377Z" fill="#FFDD00" stroke="black" stroke-width="2"/>
<path fill-rule="evenodd" clip-rule="evenodd" d="M59.795 130.236C56.551 131.762 52.603 131.279 49.728 128.662L5.12405 88.0569C1.18905 84.4749 0.754046 78.2509 4.15305 74.1569C7.55205 70.0609 13.497 69.6459 17.433 73.2279L57.1301 109.366L97.755 72.3699C101.69 68.7869 107.634 69.2029 111.032 73.2979C114.43 77.3939 113.995 83.6179 110.061 87.2009L65.4641 127.815C63.8161 129.316 61.814 130.115 59.795 130.236Z" fill="#CDBDF1"/>
<path d="M59.7962 130.236L59.7362 129.238L59.5442 129.249L59.3702 129.331L59.7952 130.236H59.7962ZM57.1302 109.366L56.4572 110.106L57.1302 110.719L57.8042 110.106L57.1302 109.366ZM111.032 73.2979L111.802 72.6589L111.032 73.2989V73.2979ZM49.0552 129.401C52.2342 132.294 56.6162 132.837 60.2212 131.141L59.3702 129.331C56.4872 130.688 52.9732 130.263 50.4022 127.922L49.0552 129.401ZM4.4512 88.7969L49.0552 129.401L50.4022 127.922L5.7972 87.3169L4.4512 88.7969ZM3.38321 73.5169C-0.356791 78.0239 0.120203 84.8539 4.4512 88.7969L5.7972 87.3169C2.2572 84.0949 1.8652 78.4779 4.9222 74.7949L3.38321 73.5169ZM18.1062 72.4899C13.7492 68.5229 7.14621 68.9839 3.38321 73.5169L4.9222 74.7949C7.9572 71.1389 13.2462 70.7689 16.7592 73.9679L18.1062 72.4899ZM57.8042 108.628L18.1062 72.4899L16.7592 73.9679L56.4572 110.106L57.8032 108.627L57.8042 108.628ZM57.8042 110.106L98.4282 73.1099L97.0822 71.6309L56.4572 108.627L57.8042 110.106ZM98.4282 73.1099C101.941 69.9099 107.228 70.2799 110.262 73.9369L111.802 72.6589C108.039 68.1249 101.438 67.6639 97.0822 71.6309L98.4282 73.1099ZM110.262 73.9369C113.319 77.6209 112.927 83.2389 109.387 86.4619L110.734 87.9409C115.064 83.9979 115.541 77.1659 111.802 72.6589L110.262 73.9369ZM109.387 86.4619L64.7912 127.075L66.1372 128.554L110.734 87.9409L109.387 86.4619ZM64.7912 127.075C63.3132 128.421 61.5292 129.13 59.7362 129.238L59.8562 131.234C62.1002 131.1 64.3182 130.21 66.1372 128.554L64.7912 127.075Z" fill="black"/>
</g>
<defs>
<clipPath id="clip0_9_2">
<rect width="133" height="115" fill="white" transform="matrix(0 1 -1 0 115 0)"/>
</clipPath>
</defs>
</svg>
