<svg width="1425" height="394" viewBox="0 0 1425 394" fill="none" xmlns="http://www.w3.org/2000/svg">
<path fill-rule="evenodd" clip-rule="evenodd" d="M0 19.4997H290V39.4997H20V366.5H225.5V386.5H0V19.4997ZM1404.5 39.4997H1134.5V19.4997H1424.5V386.5H1199V366.5H1404.5V39.4997Z" fill="#1470AF"/>
<path d="M1156.04 390V362.727H1161.81V373.98H1173.52V362.727H1179.27V390H1173.52V378.734H1161.81V390H1156.04Z" fill="#1470AF"/>
<path d="M1130.03 367.481V362.727H1152.43V367.481H1144.08V390H1138.38V367.481H1130.03Z" fill="#1470AF"/>
<path d="M1120.64 362.727H1126.4V380.438C1126.4 382.427 1125.93 384.167 1124.98 385.658C1124.04 387.15 1122.72 388.313 1121.02 389.147C1119.33 389.973 1117.35 390.386 1115.1 390.386C1112.83 390.386 1110.85 389.973 1109.16 389.147C1107.46 388.313 1106.14 387.15 1105.2 385.658C1104.26 384.167 1103.79 382.427 1103.79 380.438V362.727H1109.56V379.946C1109.56 380.984 1109.78 381.908 1110.23 382.715C1110.7 383.523 1111.34 384.158 1112.18 384.62C1113.01 385.081 1113.99 385.312 1115.1 385.312C1116.21 385.312 1117.19 385.081 1118.01 384.62C1118.85 384.158 1119.49 383.523 1119.94 382.715C1120.4 381.908 1120.64 380.984 1120.64 379.946V362.727Z" fill="#1470AF"/>
<path d="M1099.59 376.363C1099.59 379.337 1099.03 381.868 1097.9 383.954C1096.78 386.04 1095.26 387.634 1093.32 388.735C1091.39 389.827 1089.23 390.373 1086.82 390.373C1084.4 390.373 1082.22 389.822 1080.3 388.721C1078.37 387.62 1076.85 386.027 1075.73 383.941C1074.61 381.854 1074.05 379.329 1074.05 376.363C1074.05 373.389 1074.61 370.859 1075.73 368.773C1076.85 366.687 1078.37 365.097 1080.3 364.005C1082.22 362.905 1084.4 362.354 1086.82 362.354C1089.23 362.354 1091.39 362.905 1093.32 364.005C1095.26 365.097 1096.78 366.687 1097.9 368.773C1099.03 370.859 1099.59 373.389 1099.59 376.363ZM1093.75 376.363C1093.75 374.437 1093.46 372.812 1092.88 371.489C1092.31 370.167 1091.51 369.163 1090.47 368.48C1089.43 367.796 1088.22 367.454 1086.82 367.454C1085.43 367.454 1084.21 367.796 1083.17 368.48C1082.13 369.163 1081.33 370.167 1080.75 371.489C1080.18 372.812 1079.9 374.437 1079.9 376.363C1079.9 378.29 1080.18 379.915 1080.75 381.237C1081.33 382.56 1082.13 383.563 1083.17 384.247C1084.21 384.93 1085.43 385.272 1086.82 385.272C1088.22 385.272 1089.43 384.93 1090.47 384.247C1091.51 383.563 1092.31 382.56 1092.88 381.237C1093.46 379.915 1093.75 378.29 1093.75 376.363Z" fill="#1470AF"/>
<path d="M1047.48 362.727H1053.94L1060.16 374.472H1060.43L1066.65 362.727H1073.1L1063.16 380.358V390H1057.43V380.358L1047.48 362.727Z" fill="#1470AF"/>
<path d="M1035.79 362.727V390H1030.81L1018.94 372.834H1018.74V390H1012.98V362.727H1018.04L1029.81 379.879H1030.05V362.727H1035.79Z" fill="#1470AF"/>
<path d="M989.7 390H983.521L992.936 362.727H1000.37L1009.77 390H1003.59L996.758 368.959H996.545L989.7 390ZM989.314 379.28H1003.91V383.781H989.314V379.28Z" fill="#1470AF"/>
<path d="M959.087 362.727H965.546L971.765 374.472H972.031L978.25 362.727H984.708L974.761 380.358V390H969.035V380.358L959.087 362.727Z" fill="#1470AF"/>
<path d="M955.996 362.727V390H951.015L939.15 372.834H938.95V390H933.184V362.727H938.245L950.017 379.879H950.256V362.727H955.996Z" fill="#1470AF"/>
<path d="M910.298 390V362.727H928.675V367.481H916.064V373.98H927.729V378.734H916.064V385.246H928.728V390H910.298Z" fill="#1470AF"/>
<path d="M884.518 390V362.727H890.284V374.752H890.644L900.458 362.727H907.37L897.249 374.938L907.49 390H900.592L893.121 378.787L890.284 382.249V390H884.518Z" fill="#1470AF"/>
<path d="M851.38 390V362.727H862.14C864.199 362.727 865.957 363.095 867.413 363.832C868.878 364.56 869.992 365.595 870.756 366.935C871.528 368.267 871.914 369.834 871.914 371.636C871.914 373.447 871.524 375.005 870.742 376.31C869.961 377.606 868.829 378.601 867.347 379.293C865.873 379.986 864.088 380.332 861.993 380.332H854.789V375.698H861.061C862.162 375.698 863.076 375.547 863.804 375.245C864.532 374.943 865.074 374.49 865.429 373.886C865.793 373.283 865.975 372.533 865.975 371.636C865.975 370.73 865.793 369.967 865.429 369.345C865.074 368.724 864.528 368.253 863.791 367.934C863.063 367.605 862.144 367.441 861.034 367.441H857.146V390H851.38ZM866.108 377.589L872.886 390H866.521L859.889 377.589H866.108Z" fill="#1470AF"/>
<path d="M847.183 376.363C847.183 379.337 846.62 381.868 845.492 383.954C844.374 386.04 842.847 387.634 840.911 388.735C838.985 389.827 836.819 390.373 834.413 390.373C831.989 390.373 829.814 389.822 827.887 388.721C825.961 387.62 824.438 386.027 823.32 383.941C822.201 381.854 821.642 379.329 821.642 376.363C821.642 373.389 822.201 370.859 823.32 368.773C824.438 366.687 825.961 365.097 827.887 364.005C829.814 362.905 831.989 362.354 834.413 362.354C836.819 362.354 838.985 362.905 840.911 364.005C842.847 365.097 844.374 366.687 845.492 368.773C846.62 370.859 847.183 373.389 847.183 376.363ZM841.337 376.363C841.337 374.437 841.049 372.812 840.472 371.489C839.904 370.167 839.1 369.163 838.061 368.48C837.023 367.796 835.806 367.454 834.413 367.454C833.019 367.454 831.803 367.796 830.764 368.48C829.725 369.163 828.917 370.167 828.34 371.489C827.772 372.812 827.488 374.437 827.488 376.363C827.488 378.29 827.772 379.915 828.34 381.237C828.917 382.56 829.725 383.563 830.764 384.247C831.803 384.93 833.019 385.272 834.413 385.272C835.806 385.272 837.023 384.93 838.061 384.247C839.1 383.563 839.904 382.56 840.472 381.237C841.049 379.915 841.337 378.29 841.337 376.363Z" fill="#1470AF"/>
<path d="M800.26 390V362.727H818.318V367.481H806.026V373.98H817.119V378.734H806.026V390H800.26Z" fill="#1470AF"/>
<path d="M762.96 362.727H769.419L775.638 374.472H775.904L782.123 362.727H788.582L778.634 380.358V390H772.908V380.358L762.96 362.727Z" fill="#1470AF"/>
<path d="M741.159 390V362.727H751.919C753.979 362.727 755.736 363.095 757.192 363.832C758.657 364.56 759.771 365.595 760.535 366.935C761.307 368.267 761.694 369.834 761.694 371.636C761.694 373.447 761.303 375.005 760.522 376.31C759.74 377.606 758.608 378.601 757.126 379.293C755.652 379.986 753.868 380.332 751.773 380.332H744.568V375.698H750.84C751.941 375.698 752.856 375.547 753.584 375.245C754.312 374.943 754.853 374.49 755.208 373.886C755.572 373.283 755.754 372.533 755.754 371.636C755.754 370.73 755.572 369.967 755.208 369.345C754.853 368.724 754.307 368.253 753.57 367.934C752.842 367.605 751.923 367.441 750.814 367.441H746.925V390H741.159ZM755.887 377.589L762.666 390H756.3L749.668 377.589H755.887Z" fill="#1470AF"/>
<path d="M717.883 390H711.704L721.119 362.727H728.55L737.951 390H731.772L724.941 368.959H724.728L717.883 390ZM717.497 379.28H732.092V383.781H717.497V379.28Z" fill="#1470AF"/>
<path d="M708.513 362.727V390H702.747V362.727H708.513Z" fill="#1470AF"/>
<path d="M685.207 390H675.539V362.727H685.287C688.03 362.727 690.392 363.273 692.372 364.365C694.351 365.448 695.874 367.006 696.939 369.039C698.014 371.072 698.551 373.505 698.551 376.337C698.551 379.178 698.014 381.619 696.939 383.661C695.874 385.703 694.343 387.27 692.345 388.362C690.356 389.454 687.977 390 685.207 390ZM681.305 385.059H684.968C686.672 385.059 688.106 384.757 689.269 384.154C690.441 383.541 691.32 382.596 691.906 381.317C692.5 380.03 692.798 378.37 692.798 376.337C692.798 374.321 692.5 372.675 691.906 371.396C691.32 370.118 690.445 369.177 689.282 368.573C688.119 367.969 686.685 367.668 684.981 367.668H681.305V385.059Z" fill="#1470AF"/>
<path d="M661.121 376.363C661.121 379.675 660.677 382.72 659.789 385.499C658.91 388.277 657.561 390.852 655.741 393.222H650.321C651.013 392.343 651.657 391.269 652.252 390C652.847 388.73 653.366 387.345 653.81 385.845C654.254 384.336 654.6 382.773 654.849 381.157C655.097 379.542 655.221 377.944 655.221 376.363C655.221 374.259 655.004 372.138 654.569 369.998C654.143 367.85 653.557 365.861 652.811 364.032C652.074 362.194 651.244 360.69 650.321 359.518H655.741C657.561 361.888 658.91 364.463 659.789 367.241C660.677 370.02 661.121 373.061 661.121 376.363Z" fill="#1470AF"/>
<path d="M634.126 390H624.458V362.727H634.206C636.949 362.727 639.311 363.273 641.291 364.365C643.27 365.448 644.793 367.006 645.858 369.039C646.932 371.072 647.47 373.505 647.47 376.337C647.47 379.178 646.932 381.619 645.858 383.661C644.793 385.703 643.261 387.27 641.264 388.362C639.275 389.454 636.896 390 634.126 390ZM630.224 385.059H633.886C635.591 385.059 637.025 384.757 638.188 384.154C639.36 383.541 640.239 382.596 640.825 381.317C641.419 380.03 641.717 378.37 641.717 376.337C641.717 374.321 641.419 372.675 640.825 371.396C640.239 370.118 639.364 369.177 638.201 368.573C637.038 367.969 635.604 367.668 633.9 367.668H630.224V385.059Z" fill="#1470AF"/>
<path d="M617.891 362.727V390H612.125V368.2H611.966L605.72 372.115V367.002L612.472 362.727H617.891Z" fill="#1470AF"/>
<path d="M580.173 367.481V362.727H602.572V367.481H594.223V390H588.523V367.481H580.173Z" fill="#1470AF"/>
<path d="M567.088 376.363C567.088 373.061 567.528 370.02 568.407 367.241C569.294 364.463 570.648 361.888 572.468 359.518H577.888C577.196 360.397 576.552 361.471 575.957 362.74C575.362 364.001 574.843 365.386 574.399 366.895C573.955 368.404 573.609 369.967 573.36 371.583C573.112 373.19 572.988 374.783 572.988 376.363C572.988 378.467 573.201 380.594 573.627 382.742C574.062 384.882 574.648 386.87 575.385 388.708C576.13 390.546 576.965 392.051 577.888 393.222H572.468C570.648 390.852 569.294 388.277 568.407 385.499C567.528 382.72 567.088 379.675 567.088 376.363Z" fill="#1470AF"/>
<path d="M556.24 370.571C556.134 369.496 555.676 368.662 554.868 368.067C554.061 367.472 552.964 367.175 551.579 367.175C550.638 367.175 549.844 367.308 549.196 367.574C548.547 367.832 548.05 368.191 547.704 368.653C547.367 369.115 547.198 369.638 547.198 370.224C547.18 370.713 547.282 371.139 547.504 371.503C547.735 371.867 548.05 372.182 548.45 372.448C548.849 372.706 549.311 372.932 549.835 373.127C550.359 373.314 550.918 373.474 551.513 373.607L553.963 374.193C555.153 374.459 556.245 374.814 557.239 375.258C558.233 375.702 559.094 376.248 559.822 376.896C560.55 377.544 561.114 378.308 561.514 379.187C561.922 380.065 562.131 381.073 562.139 382.209C562.131 383.878 561.704 385.326 560.861 386.551C560.027 387.767 558.819 388.712 557.239 389.387C555.668 390.053 553.772 390.386 551.553 390.386C549.351 390.386 547.433 390.049 545.8 389.374C544.175 388.699 542.906 387.7 541.991 386.378C541.086 385.046 540.611 383.399 540.566 381.437H546.146C546.208 382.351 546.47 383.115 546.932 383.728C547.402 384.331 548.028 384.788 548.809 385.099C549.6 385.401 550.492 385.552 551.486 385.552C552.463 385.552 553.31 385.41 554.03 385.126C554.758 384.842 555.321 384.447 555.721 383.941C556.12 383.435 556.32 382.853 556.32 382.196C556.32 381.584 556.138 381.069 555.774 380.651C555.419 380.234 554.895 379.879 554.203 379.586C553.519 379.293 552.68 379.027 551.686 378.787L548.716 378.041C546.417 377.482 544.601 376.608 543.27 375.418C541.938 374.228 541.277 372.626 541.285 370.611C541.277 368.959 541.716 367.517 542.604 366.283C543.5 365.049 544.73 364.085 546.292 363.393C547.855 362.7 549.631 362.354 551.619 362.354C553.643 362.354 555.41 362.7 556.919 363.393C558.437 364.085 559.618 365.049 560.462 366.283C561.305 367.517 561.74 368.946 561.767 370.571H556.24Z" fill="#1470AF"/>
<path d="M518.559 390V362.727H536.936V367.481H524.325V373.98H535.99V378.734H524.325V385.246H536.989V390H518.559Z" fill="#1470AF"/>
<path d="M492.546 367.481V362.727H514.945V367.481H506.595V390H500.896V367.481H492.546Z" fill="#1470AF"/>
<path d="M470.699 390V362.727H489.076V367.481H476.465V373.98H488.13V378.734H476.465V385.246H489.129V390H470.699Z" fill="#1470AF"/>
<path d="M445.981 390V362.727H456.901C458.907 362.727 460.581 363.024 461.921 363.619C463.262 364.214 464.269 365.04 464.944 366.096C465.619 367.144 465.956 368.351 465.956 369.718C465.956 370.784 465.743 371.72 465.317 372.528C464.891 373.327 464.305 373.984 463.559 374.499C462.822 375.005 461.979 375.365 461.029 375.578V375.844C462.068 375.888 463.04 376.181 463.945 376.723C464.86 377.264 465.601 378.023 466.169 379C466.737 379.968 467.022 381.122 467.022 382.462C467.022 383.91 466.662 385.201 465.943 386.338C465.233 387.465 464.181 388.357 462.787 389.014C461.393 389.671 459.675 390 457.633 390H445.981ZM451.747 385.286H456.448C458.055 385.286 459.227 384.979 459.964 384.367C460.7 383.745 461.069 382.92 461.069 381.89C461.069 381.135 460.887 380.469 460.523 379.892C460.159 379.315 459.64 378.862 458.965 378.534C458.299 378.206 457.504 378.041 456.581 378.041H451.747V385.286ZM451.747 374.139H456.022C456.812 374.139 457.513 374.002 458.126 373.727C458.747 373.443 459.236 373.043 459.591 372.528C459.955 372.013 460.137 371.396 460.137 370.677C460.137 369.692 459.786 368.897 459.085 368.293C458.392 367.69 457.407 367.388 456.128 367.388H451.747V374.139Z" fill="#1470AF"/>
<path d="M422.705 390H416.526L425.941 362.727H433.372L442.773 390H436.594L429.763 368.959H429.55L422.705 390ZM422.319 379.28H436.914V383.781H422.319V379.28Z" fill="#1470AF"/>
<path d="M413.335 362.727V390H407.569V362.727H413.335Z" fill="#1470AF"/>
<path d="M390.029 390H380.361V362.727H390.109C392.852 362.727 395.214 363.273 397.194 364.365C399.173 365.448 400.696 367.006 401.761 369.039C402.836 371.072 403.373 373.505 403.373 376.337C403.373 379.178 402.836 381.619 401.761 383.661C400.696 385.703 399.165 387.27 397.167 388.362C395.178 389.454 392.799 390 390.029 390ZM386.128 385.059H389.79C391.494 385.059 392.928 384.757 394.091 384.154C395.263 383.541 396.142 382.596 396.728 381.317C397.322 380.03 397.62 378.37 397.62 376.337C397.62 374.321 397.322 372.675 396.728 371.396C396.142 370.118 395.267 369.177 394.104 368.573C392.941 367.969 391.507 367.668 389.803 367.668H386.128V385.059Z" fill="#1470AF"/>
<path d="M365.19 362.727V390H359.424V368.2H359.264L353.019 372.115V367.002L359.77 362.727H365.19Z" fill="#1470AF"/>
<path d="M321.994 390V362.727H340.371V367.481H327.76V373.98H339.426V378.734H327.76V385.246H340.425V390H321.994Z" fill="#1470AF"/>
<path d="M297.79 390V362.727H308.549C310.618 362.727 312.38 363.122 313.836 363.912C315.292 364.693 316.402 365.781 317.165 367.175C317.938 368.56 318.324 370.158 318.324 371.969C318.324 373.78 317.933 375.378 317.152 376.763C316.371 378.148 315.239 379.226 313.756 379.999C312.283 380.771 310.498 381.157 308.403 381.157H301.545V376.536H307.471C308.581 376.536 309.495 376.346 310.214 375.964C310.942 375.573 311.484 375.036 311.839 374.353C312.203 373.66 312.385 372.865 312.385 371.969C312.385 371.063 312.203 370.273 311.839 369.598C311.484 368.915 310.942 368.387 310.214 368.014C309.486 367.632 308.563 367.441 307.444 367.441H303.556V390H297.79Z" fill="#1470AF"/>
<path d="M269.094 362.727H275.552L281.771 374.472H282.038L288.256 362.727H294.715L284.767 380.358V390H279.041V380.358L269.094 362.727Z" fill="#1470AF"/>
<path d="M244.679 367.481V362.727H267.078V367.481H258.728V390H253.029V367.481H244.679Z" fill="#1470AF"/>
<path d="M1070.95 29.9088C1070.95 36.2535 1069.75 41.6513 1067.34 46.102C1064.95 50.5528 1061.7 53.9524 1057.57 56.3009C1053.46 58.6304 1048.84 59.7952 1043.7 59.7952C1038.53 59.7952 1033.89 58.6209 1029.78 56.2725C1025.67 53.924 1022.42 50.5244 1020.04 46.0736C1017.65 41.6228 1016.46 36.2346 1016.46 29.9088C1016.46 23.5641 1017.65 18.1664 1020.04 13.7156C1022.42 9.26489 1025.67 5.87473 1029.78 3.54519C1033.89 1.1967 1038.53 0.0224609 1043.7 0.0224609C1048.84 0.0224609 1053.46 1.1967 1057.57 3.54519C1061.7 5.87473 1064.95 9.26489 1067.34 13.7156C1069.75 18.1664 1070.95 23.5641 1070.95 29.9088ZM1058.48 29.9088C1058.48 25.799 1057.86 22.3331 1056.63 19.5111C1055.42 16.6891 1053.7 14.549 1051.49 13.0906C1049.27 11.6323 1046.68 10.9031 1043.7 10.9031C1040.73 10.9031 1038.14 11.6323 1035.92 13.0906C1033.7 14.549 1031.98 16.6891 1030.75 19.5111C1029.54 22.3331 1028.93 25.799 1028.93 29.9088C1028.93 34.0187 1029.54 37.4846 1030.75 40.3066C1031.98 43.1285 1033.7 45.2687 1035.92 46.727C1038.14 48.1853 1040.73 48.9145 1043.7 48.9145C1046.68 48.9145 1049.27 48.1853 1051.49 46.727C1053.7 45.2687 1055.42 43.1285 1056.63 40.3066C1057.86 37.4846 1058.48 34.0187 1058.48 29.9088Z" fill="#1470AF"/>
<path d="M959.685 10.96V0.817916H1007.47V10.96H989.656V58.9997H977.497V10.96H959.685Z" fill="#1470AF"/>
<path d="M872.407 0.817916H886.186L899.453 25.8747H900.021L913.288 0.817916H927.066L905.845 38.4316V58.9997H893.629V38.4316L872.407 0.817916Z" fill="#1470AF"/>
<path d="M822.032 58.9997V0.817916H861.236V10.96H834.333V24.8236H859.219V34.9656H834.333V48.8577H861.35V58.9997H822.032Z" fill="#1470AF"/>
<path d="M807.068 0.817916V58.9997H796.443L771.131 22.3804H770.705V58.9997H758.404V0.817916H769.199L794.313 37.4088H794.824V0.817916H807.068Z" fill="#1470AF"/>
<path d="M701.104 58.9997V0.817916H724.058C728.452 0.817916 732.202 1.6039 735.308 3.17587C738.433 4.7289 740.81 6.93534 742.439 9.79519C744.087 12.6361 744.911 15.9789 744.911 19.8236C744.911 23.6872 744.077 27.0111 742.411 29.7952C740.744 32.5603 738.329 34.6816 735.166 36.1588C732.022 37.6361 728.215 38.3747 723.746 38.3747H708.376V28.4884H721.757C724.106 28.4884 726.056 28.1664 727.609 27.5225C729.162 26.8785 730.318 25.9126 731.075 24.6247C731.852 23.3369 732.24 21.7365 732.24 19.8236C732.24 17.8918 731.852 16.263 731.075 14.9372C730.318 13.6115 729.153 12.6077 727.581 11.9259C726.028 11.2251 724.068 10.8747 721.7 10.8747H713.405V58.9997H701.104ZM732.524 32.5225L746.984 58.9997H733.405L719.257 32.5225H732.524Z" fill="#1470AF"/>
<path d="M673.882 0.817916H686.183V38.602C686.183 42.8444 685.17 46.5566 683.143 49.7384C681.136 52.9202 678.323 55.4013 674.706 57.1816C671.088 58.9429 666.874 59.8236 662.064 59.8236C657.234 59.8236 653.011 58.9429 649.393 57.1816C645.776 55.4013 642.963 52.9202 640.956 49.7384C638.948 46.5566 637.944 42.8444 637.944 38.602V0.817916H650.245V37.5509C650.245 39.7668 650.728 41.7365 651.694 43.46C652.679 45.1834 654.062 46.5376 655.842 47.5225C657.622 48.5073 659.696 48.9997 662.064 48.9997C664.45 48.9997 666.524 48.5073 668.285 47.5225C670.066 46.5376 671.439 45.1834 672.405 43.46C673.389 41.7365 673.882 39.7668 673.882 37.5509V0.817916Z" fill="#1470AF"/>
<path d="M624.032 29.9088C624.032 36.2535 622.829 41.6513 620.424 46.102C618.038 50.5528 614.78 53.9524 610.651 56.3009C606.542 58.6304 601.92 59.7952 596.788 59.7952C591.617 59.7952 586.977 58.6209 582.867 56.2725C578.757 53.924 575.509 50.5244 573.123 46.0736C570.737 41.6228 569.543 36.2346 569.543 29.9088C569.543 23.5641 570.737 18.1664 573.123 13.7156C575.509 9.26489 578.757 5.87473 582.867 3.54519C586.977 1.1967 591.617 0.0224609 596.788 0.0224609C601.92 0.0224609 606.542 1.1967 610.651 3.54519C614.78 5.87473 618.038 9.26489 620.424 13.7156C622.829 18.1664 624.032 23.5641 624.032 29.9088ZM611.56 29.9088C611.56 25.799 610.945 22.3331 609.714 19.5111C608.502 16.6891 606.788 14.549 604.572 13.0906C602.356 11.6323 599.761 10.9031 596.788 10.9031C593.814 10.9031 591.22 11.6323 589.004 13.0906C586.788 14.549 585.064 16.6891 583.833 19.5111C582.621 22.3331 582.015 25.799 582.015 29.9088C582.015 34.0187 582.621 37.4846 583.833 40.3066C585.064 43.1285 586.788 45.2687 589.004 46.727C591.22 48.1853 593.814 48.9145 596.788 48.9145C599.761 48.9145 602.356 48.1853 604.572 46.727C606.788 45.2687 608.502 43.1285 609.714 40.3066C610.945 37.4846 611.56 34.0187 611.56 29.9088Z" fill="#1470AF"/>
<path d="M543.437 0.817916H555.596V41.3861C555.596 45.1361 554.753 48.3937 553.067 51.1588C551.401 53.924 549.081 56.0547 546.107 57.5509C543.134 59.0471 539.677 59.7952 535.738 59.7952C532.234 59.7952 529.052 59.1797 526.192 57.9486C523.351 56.6986 521.098 54.8047 519.431 52.2668C517.764 49.71 516.94 46.4997 516.959 42.6361H529.204C529.242 44.1702 529.554 45.4865 530.141 46.585C530.747 47.6645 531.571 48.4978 532.613 49.085C533.673 49.6531 534.923 49.9372 536.363 49.9372C537.878 49.9372 539.156 49.6153 540.198 48.9713C541.259 48.3084 542.064 47.3425 542.613 46.0736C543.162 44.8047 543.437 43.2422 543.437 41.3861V0.817916Z" fill="#1470AF"/>
<path d="M430.648 0.817916H444.426L457.693 25.8747H458.261L471.528 0.817916H485.307L464.085 38.4316V58.9997H451.869V38.4316L430.648 0.817916Z" fill="#1470AF"/>
<path d="M356.054 0.817916H371.224L387.247 39.9088H387.929L403.951 0.817916H419.122V58.9997H407.19V21.1304H406.707L391.65 58.7156H383.525L368.468 20.9884H367.986V58.9997H356.054V0.817916Z" fill="#1470AF"/>
<path d="M1252.25 261V144.636H1276.86V192.647H1326.8V144.636H1351.35V261H1326.8V212.932H1276.86V261H1252.25Z" fill="#1470AF"/>
<path d="M1140.95 164.92V144.636H1236.52V164.92H1200.89V261H1176.57V164.92H1140.95Z" fill="#1470AF"/>
<path d="M1069.13 261V144.636H1093.73V240.716H1143.62V261H1069.13Z" fill="#1470AF"/>
<path d="M969.499 261H943.135L983.305 144.636H1015.01L1055.12 261H1028.76L999.612 171.227H998.703L969.499 261ZM967.851 215.261H1030.12V234.466H967.851V215.261Z" fill="#1470AF"/>
<path d="M851.473 261V144.636H929.882V164.92H876.075V192.647H925.848V212.932H876.075V240.716H930.109V261H851.473Z" fill="#1470AF"/>
<path d="M732.098 261V144.636H756.7V192.647H806.643V144.636H831.189V261H806.643V212.932H756.7V261H732.098Z" fill="#1470AF"/>
<path d="M590.067 261V144.636H635.976C644.764 144.636 652.264 146.208 658.476 149.352C664.726 152.458 669.48 156.871 672.737 162.591C676.033 168.272 677.68 174.958 677.68 182.647C677.68 190.375 676.014 197.022 672.68 202.591C669.347 208.121 664.518 212.363 658.192 215.318C651.904 218.272 644.29 219.75 635.351 219.75H604.612V199.977H631.374C636.071 199.977 639.972 199.333 643.078 198.045C646.184 196.757 648.495 194.825 650.01 192.25C651.563 189.674 652.339 186.473 652.339 182.647C652.339 178.784 651.563 175.526 650.01 172.875C648.495 170.223 646.165 168.216 643.021 166.852C639.915 165.45 635.995 164.75 631.26 164.75H614.669V261H590.067ZM652.908 208.045L681.828 261H654.669L626.374 208.045H652.908Z" fill="#1470AF"/>
<path d="M492.098 261V144.636H570.507V164.92H516.7V192.647H566.473V212.932H516.7V240.716H570.734V261H492.098Z" fill="#1470AF"/>
<path d="M380.791 164.92V144.636H476.359V164.92H440.734V261H416.416V164.92H380.791Z" fill="#1470AF"/>
<path d="M273.916 164.92V144.636H369.484V164.92H333.859V261H309.541V164.92H273.916Z" fill="#1470AF"/>
<path d="M180.379 261V144.636H258.788V164.92H204.982V192.647H254.754V212.932H204.982V240.716H259.016V261H180.379Z" fill="#1470AF"/>
<path d="M74.598 261V144.636H121.189C129.75 144.636 136.89 145.905 142.609 148.443C148.329 150.981 152.628 154.504 155.507 159.011C158.386 163.481 159.825 168.632 159.825 174.466C159.825 179.011 158.916 183.007 157.098 186.454C155.28 189.863 152.78 192.666 149.598 194.863C146.454 197.022 142.856 198.557 138.803 199.466V200.602C143.234 200.791 147.382 202.041 151.246 204.352C155.147 206.663 158.31 209.901 160.734 214.068C163.159 218.197 164.371 223.121 164.371 228.841C164.371 235.015 162.837 240.526 159.768 245.375C156.738 250.185 152.25 253.992 146.303 256.795C140.356 259.598 133.026 261 124.314 261H74.598ZM99.2003 240.886H119.257C126.113 240.886 131.113 239.579 134.257 236.966C137.401 234.314 138.973 230.791 138.973 226.397C138.973 223.178 138.196 220.337 136.643 217.875C135.09 215.413 132.875 213.481 129.996 212.079C127.155 210.678 123.765 209.977 119.825 209.977H99.2003V240.886ZM99.2003 193.329H117.439C120.81 193.329 123.803 192.742 126.416 191.568C129.068 190.356 131.151 188.651 132.666 186.454C134.219 184.257 134.996 181.625 134.996 178.557C134.996 174.352 133.5 170.962 130.507 168.386C127.553 165.81 123.348 164.522 117.893 164.522H99.2003V193.329Z" fill="#1470AF"/>
</svg>
